HIERARCHY
ROOT joint_Root
{
	OFFSET 0.0 0.0 0.0
	CHANNELS 6 Xposition Yposition Zposition Zrotation Xrotation Yrotation 
	JOINT Hips
	{
		OFFSET 4.5925 91.4895 -427.239
		CHANNELS 6 Xposition Yposition Zposition Zrotation Xrotation Yrotation 
		JOINT Spine
		{
			OFFSET 15.7357 0.0 0.0
			CHANNELS 6 Xposition Yposition Zposition Zrotation Xrotation Yrotation 
			JOINT Chest
			{
				OFFSET 8.98455 -0.406207 0.0
				CHANNELS 6 Xposition Yposition Zposition Zrotation Xrotation Yrotation 
				JOINT Neck
				{
					OFFSET 16.3773 0.0 0.0
					CHANNELS 6 Xposition Yposition Zposition Zrotation Xrotation Yrotation 
					JOINT Head
					{
						OFFSET 6.45672 0.0 0.0
						CHANNELS 6 Xposition Yposition Zposition Zrotation Xrotation Yrotation 
						End Site
						{
							OFFSET 0.0 0.0 0.0
						}
					}
				}
				JOINT Shoulder_L
				{
					OFFSET 12.9942 -0.242716 4.98039
					CHANNELS 6 Xposition Yposition Zposition Zrotation Xrotation Yrotation 
					JOINT UpperArm_L
					{
						OFFSET 5.34809 0.0 0.0
						CHANNELS 6 Xposition Yposition Zposition Zrotation Xrotation Yrotation 
						JOINT LowerArm_L
						{
							OFFSET 24.3286 1.87007e-05 0.0
							CHANNELS 6 Xposition Yposition Zposition Zrotation Xrotation Yrotation 
							JOINT Hand_L
							{
								OFFSET 22.2916 0.0 0.0
								CHANNELS 6 Xposition Yposition Zposition Zrotation Xrotation Yrotation 
								End Site
								{
									OFFSET 0.0 0.0 0.0
								}
							}
						}
					}
				}
				JOINT Shoulder_R
				{
					OFFSET 12.9945 -0.242716 -4.98039
					CHANNELS 6 Xposition Yposition Zposition Zrotation Xrotation Yrotation 
					JOINT UpperArm_R
					{
						OFFSET -5.34813 0.0 0.0
						CHANNELS 6 Xposition Yposition Zposition Zrotation Xrotation Yrotation 
						JOINT LowerArm_R
						{
							OFFSET -24.3289 0.000322201 0.0
							CHANNELS 6 Xposition Yposition Zposition Zrotation Xrotation Yrotation 
							JOINT Hand_R
							{
								OFFSET -22.2915 -0.000108084 0.0
								CHANNELS 6 Xposition Yposition Zposition Zrotation Xrotation Yrotation 
								End Site
								{
									OFFSET 0.0 0.0 0.0
								}
							}
						}
					}
				}
			}
		}
		JOINT UpperLeg_L
		{
			OFFSET -2.19248 -6.46944 0.0
			CHANNELS 6 Xposition Yposition Zposition Zrotation Xrotation Yrotation 
			JOINT LowerLeg_L
			{
				OFFSET 39.0811 0.0 -1.23785e-05
				CHANNELS 6 Xposition Yposition Zposition Zrotation Xrotation Yrotation 
				JOINT Foot_L
				{
					OFFSET 40.9854 0.0 -1.26872e-05
					CHANNELS 6 Xposition Yposition Zposition Zrotation Xrotation Yrotation 
					JOINT Toes_L
					{
						OFFSET 11.7543 0.0 0.0
						CHANNELS 6 Xposition Yposition Zposition Zrotation Xrotation Yrotation 
						End Site
						{
							OFFSET 0.0 0.0 0.0
						}
					}
				}
			}
		}
		JOINT UpperLeg_R
		{
			OFFSET -2.19251 6.46944 0.0
			CHANNELS 6 Xposition Yposition Zposition Zrotation Xrotation Yrotation 
			JOINT LowerLeg_R
			{
				OFFSET -39.0811 -0.00228153 -0.0401928
				CHANNELS 6 Xposition Yposition Zposition Zrotation Xrotation Yrotation 
				JOINT Foot_R
				{
					OFFSET -40.9854 0.0 0.0
					CHANNELS 6 Xposition Yposition Zposition Zrotation Xrotation Yrotation 
					JOINT Toes_R
					{
						OFFSET -11.7543 0.0 0.0
						CHANNELS 6 Xposition Yposition Zposition Zrotation Xrotation Yrotation 
						End Site
						{
							OFFSET 0.0 0.0 0.0
						}
					}
				}
			}
		}
	}
}
MOTION
Frames:	6
Frame Time:	0.0333333
0.000000 0.000000 0.000000 0.000000 0.000000 -0.000000 -1.884550 82.996400 -2.011580 89.985100 -6.701690 10.397800 15.735700 0.000005 -0.000001 90.028700 80.692600 -90.782800 8.984550 -0.406207 -0.000000 10.849100 -0.010998 -1.506220 16.377300 -0.000001 -0.000001 -1.768110 -1.768860 0.643548 6.456720 -0.000001 -0.000000 -3.561300 -2.568640 5.458690 12.994200 -0.242716 4.980390 -91.795800 5.888770 -73.007000 5.348090 -0.000007 -0.000001 -65.716800 13.756300 -12.145500 24.328600 0.000019 0.000005 11.703600 12.473000 -43.800500 22.291600 -0.000001 0.000005 10.652800 5.413230 -3.372730 12.994500 -0.242716 -4.980390 88.345300 9.187580 -79.744700 -5.348130 -0.000001 -0.000004 -61.105500 33.550200 -9.173700 -24.328900 0.000322 -0.000009 1.732850 2.972960 -30.274400 -22.291500 -0.000108 -0.000004 20.004000 5.456300 -4.868530 -2.192480 -6.469440 -0.000000 -172.691000 -16.373900 -14.229300 39.081100 -0.000007 -0.000012 -0.431464 0.252452 59.668800 40.985400 -0.000006 -0.000013 0.976807 6.608930 -84.109000 11.754300 -0.000000 0.000003 -0.000459 -0.003708 -16.713600 -2.192510 6.469440 -0.000001 177.227000 11.027800 164.297000 -39.081100 -0.002282 -0.040193 0.066836 -0.035854 60.603300 -40.985400 0.000008 0.000006 8.084660 4.685580 -84.735600 -11.754300 -0.000006 -0.000006 -0.865444 -1.075570 -16.544800
0.000000 0.000000 0.000000 0.000000 0.000000 -0.000000 -1.601230 84.862300 -1.333580 90.256100 -7.225410 10.020700 15.735700 0.000005 -0.000001 90.250800 81.498800 -90.434300 8.984550 -0.406207 -0.000000 9.236360 0.071664 -0.372488 16.377300 -0.000001 -0.000001 -0.056490 -1.319810 0.597573 6.456720 -0.000001 -0.000000 -2.457180 -1.912760 4.566510 12.994200 -0.242716 4.980390 -91.569300 4.780760 -71.802300 5.348090 -0.000007 -0.000001 -59.617100 12.576100 -17.611200 24.328600 0.000019 0.000005 14.872800 11.840900 -52.309800 22.291600 -0.000001 0.000005 10.978000 5.415530 -3.449090 12.994500 -0.242716 -4.980390 88.253400 8.971690 -78.936100 -5.348130 -0.000001 -0.000004 -63.699400 31.014800 -6.271100 -24.328900 0.000322 -0.000009 1.126640 2.154360 -27.629200 -22.291500 -0.000108 -0.000004 20.488100 5.435820 -4.139890 -2.192480 -6.469440 -0.000000 -173.538000 -15.909800 -11.253500 39.081100 -0.000007 -0.000012 -0.400559 0.292718 53.842600 40.985400 -0.000006 -0.000013 0.385757 5.523770 -81.752200 11.754300 -0.000000 0.000003 -0.000464 -0.003743 -16.714800 -2.192510 6.469440 -0.000001 176.615000 10.913900 167.027000 -39.081100 -0.002282 -0.040193 0.054080 -0.035455 55.116000 -40.985400 0.000008 0.000006 7.754160 5.765240 -82.303700 -11.754300 -0.000006 -0.000006 -0.858033 -1.063920 -16.677900
0.000000 0.000000 0.000000 0.000000 0.000000 -0.000000 -1.444070 87.182500 -0.656431 90.512000 -7.460790 9.577760 15.735700 0.000005 -0.000001 91.143600 82.447200 -90.743200 8.984550 -0.406207 -0.000000 7.335720 0.298866 0.780937 16.377300 -0.000001 -0.000001 2.336250 -1.551500 0.816384 6.456720 -0.000001 -0.000000 -1.183010 -1.909730 4.287680 12.994200 -0.242716 4.980390 -90.959700 2.789460 -71.005300 5.348090 -0.000007 -0.000001 -51.235000 6.494270 -27.175000 24.328600 0.000019 0.000005 13.556300 8.077490 -59.774900 22.291600 -0.000001 0.000005 10.565000 5.407810 -3.196070 12.994500 -0.242716 -4.980390 88.214100 8.322280 -77.842800 -5.348130 -0.000001 -0.000004 -65.775100 29.832100 -2.838940 -24.328900 0.000322 -0.000009 -0.241413 -0.495860 -25.860600 -22.291500 -0.000108 -0.000004 19.640600 5.448080 -4.570600 -2.192480 -6.469440 -0.000000 -174.138000 -15.904300 -7.207690 39.081100 -0.000007 -0.000012 -0.327519 0.319618 45.700200 40.985400 -0.000006 -0.000013 0.033349 5.219840 -78.176500 11.754300 -0.000000 0.000003 -0.000372 -0.003111 -16.692600 -2.192510 6.469440 -0.000001 175.955000 11.635300 170.782000 -39.081100 -0.002282 -0.040193 0.041437 -0.034966 47.516400 -40.985400 0.000008 0.000006 7.529070 7.349780 -78.778500 -11.754300 -0.000006 -0.000006 -0.692250 -0.851359 -17.033200
0.000000 0.000000 0.000000 0.000000 0.000000 -0.000000 -1.451960 89.194400 -0.207125 90.080200 -6.790540 8.155870 15.735700 0.000005 -0.000001 90.141000 83.698600 -88.961400 8.984550 -0.406207 -0.000000 4.837760 0.000840 2.356420 16.377300 -0.000001 -0.000001 4.622230 -2.419680 1.285880 6.456720 -0.000001 -0.000000 0.072369 -2.326500 4.442520 12.994200 -0.242716 4.980390 -90.152100 0.448097 -71.277000 5.348090 -0.000007 -0.000001 -43.302800 -5.848760 -38.092500 24.328600 0.000019 0.000005 10.732800 5.133290 -64.733200 22.291600 -0.000001 0.000005 13.205000 5.397300 -2.850660 12.994500 -0.242716 -4.980390 88.224700 7.316400 -76.320600 -5.348130 -0.000001 -0.000004 -66.694300 30.069600 0.241618 -24.328900 0.000322 -0.000009 0.332945 0.702530 -25.426400 -22.291500 -0.000108 -0.000004 17.273900 5.445720 -4.487630 -2.192480 -6.469440 -0.000000 -174.023000 -16.135700 -4.418770 39.081100 -0.000007 -0.000012 -0.254748 0.329277 37.728100 40.985400 -0.000006 -0.000013 -0.009374 6.123540 -74.415600 11.754300 -0.000000 0.000003 -0.000259 -0.002301 -16.663700 -2.192510 6.469440 -0.000001 175.977000 14.349100 173.808000 -39.081100 -0.002282 -0.040193 0.031397 -0.033980 39.607100 -40.985400 0.000008 0.000006 7.475060 9.776830 -75.066900 -11.754300 -0.000006 -0.000006 -0.630624 -0.773493 -17.337400
0.000000 0.000000 0.000000 0.000000 0.000000 -0.000000 -1.459700 90.512300 0.012440 89.641000 -6.280450 6.316600 15.735700 0.000005 -0.000001 86.039900 84.855100 -84.157700 8.984550 -0.406207 -0.000000 2.515370 -0.796234 3.778280 16.377300 -0.000001 -0.000001 5.937280 -3.122430 1.953380 6.456720 -0.000001 -0.000000 0.760754 -2.473560 4.621090 12.994200 -0.242716 4.980390 -89.131100 -2.806270 -72.782900 5.348090 -0.000007 -0.000001 -39.732100 -23.644500 -47.731500 24.328600 0.000019 0.000005 7.499180 3.453320 -65.409500 22.291600 -0.000001 0.000005 16.519500 5.410460 -3.277820 12.994500 -0.242716 -4.980390 88.253200 6.569310 -75.074200 -5.348130 -0.000001 -0.000004 -66.001000 31.544900 2.261050 -24.328900 0.000322 -0.000009 1.303360 2.636470 -26.335100 -22.291500 -0.000108 -0.000004 15.941900 5.440600 -4.306980 -2.192480 -6.469440 -0.000000 -173.881000 -17.134300 -3.135110 39.081100 -0.000007 -0.000012 -0.173593 0.281591 31.653000 40.985400 -0.000006 -0.000013 0.074726 7.598760 -71.431300 11.754300 -0.000000 0.000003 -0.000168 -0.001601 -16.638200 -2.192510 6.469440 -0.000001 176.213000 17.480700 175.439000 -39.081100 -0.002282 -0.040193 0.023260 -0.030359 33.330700 -40.985400 0.000008 0.000006 7.613600 12.618200 -72.329300 -11.754300 -0.000006 -0.000006 -0.580902 -0.712680 -17.387700
0.000000 0.000000 0.000000 0.000000 0.000000 -0.000000 -1.300190 91.226400 0.140359 89.368900 -6.624980 4.920360 15.735700 0.000005 -0.000001 76.306900 85.350800 -73.745000 8.984550 -0.406207 -0.000000 1.326910 -2.343940 5.147280 16.377300 -0.000001 -0.000001 6.118610 -2.501860 2.493140 6.456720 -0.000001 -0.000000 0.777778 -2.145950 4.829930 12.994200 -0.242716 4.980390 -87.937500 -6.891320 -73.292300 5.348090 -0.000007 -0.000001 -41.290000 -42.128300 -58.158800 24.328600 0.000019 0.000005 4.188420 2.427770 -59.918700 22.291600 -0.000001 0.000005 18.983900 5.456920 -4.881170 12.994500 -0.242716 -4.980390 88.313800 6.457700 -75.332000 -5.348130 -0.000001 -0.000004 -63.128200 33.410900 2.660080 -24.328900 0.000322 -0.000009 1.658310 3.111720 -28.087000 -22.291500 -0.000108 -0.000004 16.393600 5.445060 -4.463740 -2.192480 -6.469440 -0.000000 -173.976000 -18.251300 -2.486200 39.081100 -0.000007 -0.000012 -0.131528 0.249004 27.844000 40.985400 -0.000006 -0.000013 0.085253 8.220170 -69.634800 11.754300 -0.000000 0.000003 -0.000135 -0.001330 -16.628200 -2.192510 6.469440 -0.000001 176.333000 19.654600 176.382000 -39.081100 -0.002282 -0.040193 0.016478 -0.023747 29.018900 -40.985400 0.000008 0.000006 7.622300 15.210700 -70.869500 -11.754300 -0.000006 -0.000006 -0.350090 -0.432193 -17.157900
